HIERARCHY
ROOT Hips
{
	OFFSET 0.000000 0.000000 0.000000
	CHANNELS 6 Xposition Yposition Zposition Xrotation Yrotation Zrotation
	JOINT LeftUpLeg_virtual
	{
		OFFSET 0.000000 0.000000 0.000000
		CHANNELS 3 Xrotation Yrotation Zrotation
		JOINT LeftUpLeg
		{
			OFFSET 10.205400 -3.823500 0.155100
			CHANNELS 3 Xrotation Yrotation Zrotation
			JOINT LeftLeg
			{
				OFFSET 0.708757 -12.982077 0.567790
				CHANNELS 3 Xrotation Yrotation Zrotation
				JOINT LeftFoot
				{
					OFFSET -0.708756 -10.717838 -2.184338
					CHANNELS 3 Xrotation Yrotation Zrotation
					JOINT LeftToeBase
					{
						OFFSET 0.108149 -7.191104 7.560241
						CHANNELS 3 Xrotation Yrotation Zrotation
						JOINT LeftToe_End
						{
							OFFSET 0.070230 0.081724 4.490308
							CHANNELS 3 Xrotation Yrotation Zrotation
							End Site
							{
								OFFSET 0 0 0
							}
						}
					}
				}
			}
		}
	}
	JOINT RightUpLeg_virtual
	{
		OFFSET 0.000000 0.000000 0.000000
		CHANNELS 3 Xrotation Yrotation Zrotation
		JOINT RightUpLeg
		{
			OFFSET -10.205400 -3.823500 0.005500
			CHANNELS 3 Xrotation Yrotation Zrotation
			JOINT RightLeg
			{
				OFFSET -0.708756 -12.982134 0.610632
				CHANNELS 3 Xrotation Yrotation Zrotation
				JOINT RightFoot
				{
					OFFSET 0.708754 -10.717769 -1.945823
					CHANNELS 3 Xrotation Yrotation Zrotation
					JOINT RightToeBase
					{
						OFFSET -0.108140 -7.191069 7.372968
						CHANNELS 3 Xrotation Yrotation Zrotation
						JOINT RightToe_End
						{
							OFFSET -0.070227 0.081735 4.479403
							CHANNELS 3 Xrotation Yrotation Zrotation
							End Site
							{
								OFFSET 0 0 0
							}
						}
					}
				}
			}
		}
	}
	JOINT Spine_virtual
	{
		OFFSET 0.000000 0.000000 0.000000
		CHANNELS 3 Xrotation Yrotation Zrotation
		JOINT Spine
		{
			OFFSET 0.000000 6.876099 0.125700
			CHANNELS 3 Xrotation Yrotation Zrotation
			JOINT Spine1
			{
				OFFSET 0.000000 5.730043 0.104720
				CHANNELS 3 Xrotation Yrotation Zrotation
				JOINT Spine1_split
				{
					OFFSET 0.000000 5.730043 0.104720
					CHANNELS 3 Xrotation Yrotation Zrotation
					JOINT Spine2
					{
						OFFSET 0.000000 5.730043 0.104720
						CHANNELS 3 Xrotation Yrotation Zrotation
						JOINT Neck_virtual
						{
							OFFSET 0.000000 0.000000 0.000000
							CHANNELS 3 Xrotation Yrotation Zrotation
							JOINT Neck
							{
								OFFSET 0.000000 10.314075 0.188496
								CHANNELS 3 Xrotation Yrotation Zrotation
								JOINT Head
								{
									OFFSET 0.000000 7.643700 -2.377400
									CHANNELS 3 Xrotation Yrotation Zrotation
									JOINT HeadTop_End
									{
										OFFSET 0.000000 43.788605 -13.619600
										CHANNELS 3 Xrotation Yrotation Zrotation
										End Site
										{
											OFFSET 0 0 0
										}
									}
								}
							}
						}
						JOINT LeftShoulder_virtual
						{
							OFFSET 0.000000 0.000000 0.000000
							CHANNELS 3 Xrotation Yrotation Zrotation
							JOINT LeftShoulder
							{
								OFFSET 2.196100 4.412489 0.087492
								CHANNELS 3 Xrotation Yrotation Zrotation
								JOINT LeftShoulder_split
								{
									OFFSET 2.196100 4.412489 0.087492
									CHANNELS 3 Xrotation Yrotation Zrotation
									JOINT LeftArm
									{
										OFFSET 8.771219 -2.981674 -0.026999
										CHANNELS 3 Xrotation Yrotation Zrotation
										JOINT LeftForeArm
										{
											OFFSET 8.512804 0.000000 -0.000000
											CHANNELS 3 Xrotation Yrotation Zrotation
											JOINT LeftHand
											{
												OFFSET 18.484802 0.000000 -0.000000
												CHANNELS 3 Xrotation Yrotation Zrotation
												End Site
												{
													OFFSET 0 0 0
												}
											}
										}
									}
								}
							}
						}
						JOINT RightShoulder_virtual
						{
							OFFSET 0.000000 0.000000 0.000000
							CHANNELS 3 Xrotation Yrotation Zrotation
							JOINT RightShoulder
							{
								OFFSET -2.196100 4.412496 0.070690
								CHANNELS 3 Xrotation Yrotation Zrotation
								JOINT RightShoulder_split
								{
									OFFSET -2.196100 4.412496 0.070690
									CHANNELS 3 Xrotation Yrotation Zrotation
									JOINT RightArm
									{
										OFFSET -8.771282 -2.981682 -0.094208
										CHANNELS 3 Xrotation Yrotation Zrotation
										JOINT RightForeArm
										{
											OFFSET -8.494598 0.000000 0.000000
											CHANNELS 3 Xrotation Yrotation Zrotation
											JOINT RightHand
											{
												OFFSET -18.483803 0.000000 0.000001
												CHANNELS 3 Xrotation Yrotation Zrotation
												End Site
												{
													OFFSET 0 0 0
												}
											}
										}
									}
								}
							}
						}
					}
				}
			}
		}
	}
}
MOTION
Frames: 4
Frame Time: 0.03333333
-1.038187 34.295052 -0.478312 0.000000 0.000000 0.000000 -6.006336 -17.325178 -0.871301 3.421293 21.351467 7.085692 15.932255 3.602614 0.400586 -19.250092 -0.226771 -3.672133 1.342596 0.735765 -0.073584 0.000000 0.000000 0.000000 -6.270750 -15.072568 -0.679991 -6.891065 -8.934566 -13.239921 20.266691 -11.074559 0.801740 -3.817301 -3.264770 7.138620 -4.186121 -0.228050 -0.409607 0.000000 0.000000 0.000000 -6.491770 -17.977959 -1.296122 8.981339 2.469044 -0.391216 -4.777874 1.515289 -0.737347 0.624654 0.820424 0.117145 0.000000 0.000000 0.000000 -5.529596 3.852184 -1.503432 4.589339 2.358652 0.730473 2.157928 -5.655836 5.266135 0.000000 0.000000 0.000000 -5.839766 3.824600 -1.731326 2.581829 -12.307990 -1.390681 -1.059221 -2.163244 -0.070968 15.467313 6.465828 -72.367377 3.134196 -7.740525 0.881009 0.000000 0.000000 0.000000 -4.483091 3.999253 -1.499844 0.136765 1.450930 4.610623 -3.268811 -3.596017 -1.063146 -2.017022 5.056072 80.373937 2.511226 21.844017 2.219928 0.000000 0.000000 0.000000 
-1.007542 34.273331 -0.487712 0.000000 0.000000 0.000000 -5.994264 -17.537371 -0.794515 3.113381 21.220804 7.110264 16.650845 3.584904 0.541319 -19.385813 -0.270386 -3.712285 1.454394 0.714067 -0.098071 0.000000 0.000000 0.000000 -6.209652 -15.234457 -0.626682 -7.012897 -9.059875 -13.076143 20.018238 -11.171866 0.531626 -3.496270 -3.366657 7.524508 -4.557039 -0.180562 -0.405677 0.000000 0.000000 0.000000 -6.519579 -18.040300 -1.264126 8.918949 2.456040 -0.396171 -4.808886 1.496919 -0.784335 0.553507 0.917836 0.076037 0.000000 0.000000 0.000000 -5.677829 3.839545 -1.548471 4.662789 2.371883 0.752899 2.196424 -5.622633 5.229234 0.000000 0.000000 0.000000 -5.852648 3.806228 -1.787138 2.548910 -12.238301 -1.559178 -1.074521 -2.110438 0.022516 15.512883 6.853617 -72.062300 2.945499 -7.593213 0.649502 0.000000 0.000000 0.000000 -4.480749 3.994745 -1.547609 0.098691 1.563051 4.803666 -3.174235 -3.529541 -1.082290 -2.018424 5.019720 80.664520 2.553096 22.334229 2.241290 0.000000 0.000000 0.000000 
-0.958056 34.224949 -0.514496 0.000000 0.000000 0.000000 -5.872368 -17.664269 -0.771687 2.176302 20.939362 7.450156 18.322278 3.370720 0.798624 -19.667378 -0.570640 -3.648217 1.405419 0.677937 -0.172881 0.000000 0.000000 0.000000 -6.125706 -15.235647 -0.657982 -7.128329 -9.502553 -12.781427 19.894466 -11.112881 0.192650 -3.711394 -3.347634 8.140653 -4.515311 -0.081241 -0.309964 0.000000 0.000000 0.000000 -6.403304 -18.058433 -1.249730 8.844680 2.409325 -0.352246 -4.838079 1.466709 -0.866676 0.540339 0.950211 0.074306 0.000000 0.000000 0.000000 -5.820455 3.814059 -1.623814 4.724292 2.393085 0.727459 2.164261 -5.655934 5.342224 0.000000 0.000000 0.000000 -5.861581 3.775302 -1.852270 2.487111 -12.127120 -1.800638 -1.107604 -2.187500 0.086295 15.547828 7.161164 -71.428486 3.009200 -7.238305 0.534353 0.000000 0.000000 0.000000 -4.473218 3.974534 -1.615159 0.036040 1.620069 5.203687 -3.216564 -3.536994 -1.236545 -2.113017 5.370532 80.825488 2.768136 22.839461 2.303265 0.000000 0.000000 0.000000 
-0.887095 34.158150 -0.590381 0.000000 0.000000 0.000000 -5.658947 -17.677740 -0.775115 0.777767 20.620304 7.948601 20.534134 3.066416 1.076027 -20.053616 -1.093355 -3.406676 1.237657 0.619992 -0.229491 0.000000 0.000000 0.000000 -6.032896 -15.071806 -0.738264 -7.290309 -10.160046 -12.462723 19.807332 -10.880940 -0.203174 -4.388026 -3.228542 8.884705 -3.992198 0.053152 -0.130149 0.000000 0.000000 0.000000 -6.145856 -18.044805 -1.263599 8.785652 2.336091 -0.283595 -4.857218 1.438093 -0.961457 0.580934 1.014107 0.115207 0.000000 0.000000 0.000000 -5.943486 3.785471 -1.706241 4.759871 2.416053 0.675010 2.075957 -5.742980 5.576505 0.000000 0.000000 0.000000 -5.856636 3.740784 -1.908599 2.404433 -11.951084 -2.101359 -1.066979 -2.409064 0.121084 15.458233 7.217936 -70.620235 3.284004 -6.764186 0.484372 0.000000 0.000000 0.000000 -4.459557 3.948574 -1.685571 -0.034699 1.614557 5.730917 -3.379794 -3.523980 -1.475622 -2.261690 5.999226 80.729421 3.144215 23.256304 2.425572 0.000000 0.000000 0.000000 
